<svg version="1.1" id="Layer_1" xmlns="http://www.w3.org/2000/svg" xmlns:xlink="http://www.w3.org/1999/xlink" x="0px" y="0px"
	 width="100%" viewBox="0 0 1024 1024" enable-background="new 0 0 1024 1024" xml:space="preserve">
<path fill="#0B7B99" opacity="1.000000" stroke="none" 
	d="
M856.000000,1025.000000 
	C719.309998,1025.000000 582.619995,1025.000000 445.468018,1024.531372 
	C445.002350,961.296631 444.983887,898.530518 444.999237,835.764404 
	C445.014679,772.666077 445.063751,709.567810 445.552429,646.387146 
	C509.489105,646.313904 572.971497,646.342041 636.453857,646.326538 
	C695.279358,646.312134 754.104797,646.236633 812.930298,646.221069 
	C827.590759,646.217224 842.251282,646.340698 856.929626,646.842529 
	C856.636963,661.502869 856.202698,675.724976 856.040222,689.950134 
	C855.633545,725.554993 855.226990,761.160706 855.079224,796.767151 
	C855.021973,810.552673 855.918091,824.340698 855.941406,838.128296 
	C856.046753,900.418701 855.995117,962.709412 856.000000,1025.000000 
z"/>
<path fill="#0B7B99" opacity="1.000000" stroke="none" 
	d="
M445.000000,1.000000 
	C581.690002,1.000000 718.379944,1.000000 855.537720,1.468651 
	C855.675354,100.938011 855.344543,199.938721 855.020020,298.939453 
	C855.014038,300.768799 855.083130,302.598389 855.115601,304.427917 
	C855.381226,319.372467 855.696777,334.316376 855.893494,349.261841 
	C856.019592,358.838928 855.970215,368.418335 855.534973,378.065308 
	C755.673096,378.136688 656.275757,378.151001 556.878479,378.136414 
	C519.584045,378.130951 482.289581,378.058411 444.992249,377.546509 
	C444.992920,251.717697 444.996460,126.358849 445.000000,1.000000 
z"/>
<path fill="#E5E0FB" opacity="1.000000" stroke="none" 
	d="
M1025.000000,402.000000 
	C1025.000000,419.354218 1025.000000,436.708466 1024.652466,454.490234 
	C1019.044067,449.082336 1012.202637,449.620148 1005.300049,450.057434 
	C999.098633,450.450287 994.946777,453.356232 993.116638,459.302124 
	C992.239258,462.152740 991.665710,465.096802 990.613037,467.954834 
	C988.580261,466.700104 986.889038,465.489075 986.125366,464.942200 
	C982.177002,465.740356 979.061523,466.370148 975.779297,466.677185 
	C974.837830,464.348541 974.205933,462.272766 973.264771,460.348206 
	C967.787598,449.148560 950.416748,446.099915 941.797485,455.247559 
	C939.255493,457.945343 938.542969,462.366882 936.608154,465.998291 
	C931.086243,462.743835 925.723694,463.052216 920.094604,464.667511 
	C917.123596,458.262939 914.287170,451.535309 906.843018,450.681641 
	C898.881042,449.768494 890.733215,450.475739 882.401855,450.475739 
	C882.401855,468.577698 882.401855,486.293732 882.313843,504.470459 
	C882.104614,524.029968 881.921753,543.128845 881.962036,562.227295 
	C881.965881,564.054138 882.915466,567.028503 884.182861,567.520447 
	C893.885254,571.286987 903.760559,572.000488 912.674072,565.590515 
	C920.656860,559.849792 919.633118,551.263916 918.692139,542.940674 
	C918.816040,542.977722 919.069275,543.030823 919.457886,543.024536 
	C921.995300,543.590942 924.129089,544.562073 926.296204,544.643188 
	C929.573364,544.765808 932.873718,544.268311 936.176270,544.484619 
	C936.193848,547.099854 935.948120,549.300415 936.250549,551.422913 
	C937.277466,558.630066 939.821777,564.646118 947.216858,567.978882 
	C956.941833,572.361633 970.141968,570.399902 975.954468,556.897705 
	C979.777588,557.344116 983.188232,557.758057 986.947937,558.214294 
	C986.396912,556.294922 985.881714,554.500366 985.249878,552.299255 
	C987.011047,552.185425 988.437805,552.093201 989.920532,552.330933 
	C990.371460,554.749023 990.766479,556.837219 990.922729,559.113525 
	C991.230835,559.829346 991.777710,560.357178 992.603699,561.063354 
	C999.396423,572.934204 1015.125610,574.285034 1025.000000,564.000000 
	C1025.000000,583.354248 1025.000000,602.708435 1024.534180,622.475891 
	C706.882263,622.889099 389.696289,622.889099 72.599670,622.889099 
	C72.599670,549.102173 72.599670,475.810272 72.599670,402.108307 
	C74.106667,402.108307 75.402184,402.108429 76.697708,402.108276 
	C231.169266,402.090118 385.640808,402.096405 540.112366,402.045898 
	C660.420166,402.006531 780.727966,401.874451 901.035767,401.829834 
	C942.357178,401.814514 983.678589,401.939270 1025.000000,402.000000 
M315.474792,517.851013 
	C314.786011,513.397888 314.097229,508.944763 313.317078,503.900970 
	C312.073883,503.900970 310.526947,503.900970 308.180573,503.741211 
	C301.220184,503.281128 301.227203,503.281097 301.186829,496.574127 
	C301.160736,492.243439 301.089966,487.912964 301.076080,483.582245 
	C301.056549,477.487457 301.071136,471.392548 301.071136,464.841553 
	C306.022095,464.841553 310.415405,464.841553 315.035706,464.841553 
	C315.035706,461.903198 315.035706,459.430756 315.165527,456.074890 
	C315.211975,453.931641 315.660675,451.713470 312.176575,451.820831 
	C304.763306,452.049164 297.342712,452.041382 289.317688,452.675415 
	C289.210205,460.117432 289.102692,467.559479 288.278778,474.901093 
	C287.469757,474.150940 286.527954,473.500610 285.875336,472.632812 
	C283.410797,469.355713 281.040192,466.008026 278.791504,462.903595 
	C275.686279,464.697144 273.575165,465.916504 271.152832,466.511292 
	C269.772919,463.532867 268.955170,460.077118 266.907501,457.665741 
	C260.822174,450.499451 255.231674,450.451508 248.170883,456.521332 
	C241.740677,462.049133 240.255615,469.438202 240.224213,477.245331 
	C240.108963,505.902496 240.176834,534.560425 240.175797,563.218018 
	C240.175720,565.004822 240.175781,566.791626 240.175781,569.036804 
	C243.559601,569.036804 246.342087,569.036804 250.040329,569.016724 
	C254.468369,568.952576 258.896393,568.888367 264.163239,568.822693 
	C266.887451,568.214294 269.611694,567.605957 273.103790,567.030457 
	C278.565826,567.353821 284.027863,567.677124 289.863342,568.781128 
	C298.143433,569.273743 306.423523,569.766357 314.722168,570.260010 
	C314.722168,565.580505 314.722168,562.021240 314.722168,558.286560 
	C311.333435,558.130981 308.370728,557.830261 305.417328,557.903625 
	C302.174774,557.984253 301.119019,556.653320 301.148254,553.440674 
	C301.246735,542.632385 301.087982,531.821777 301.820892,521.120300 
	C304.500305,521.676270 307.185333,522.206604 309.857727,522.794556 
	C313.499084,523.595642 315.611786,522.631470 315.474792,517.851013 
M699.008911,574.938965 
	C699.008911,580.127502 699.008911,585.316040 699.008911,590.878723 
	C703.871338,590.878723 707.929993,590.878723 712.865906,591.082581 
	C714.978455,591.082581 717.091003,591.082581 719.470581,591.082581 
	C719.470581,584.196350 719.470581,577.672241 719.470581,570.565857 
	C713.286194,570.565857 707.215759,570.451416 701.162170,570.717834 
	C700.444885,570.749390 699.819397,572.865295 699.008911,574.938965 
M707.916077,426.204254 
	C705.174744,426.204254 702.433411,426.204254 699.758545,426.204254 
	C699.758545,433.308899 699.758545,439.658997 699.758545,446.074890 
	C706.223877,446.074890 712.307739,446.074890 718.772583,446.074890 
	C718.772583,439.472809 718.772583,433.092224 718.772583,426.448975 
	C717.215515,426.368408 715.925537,426.301636 713.663635,426.096558 
	C712.036804,426.093597 710.409973,426.090637 707.916077,426.204254 
M198.224014,470.910919 
	C198.224014,503.434998 198.224014,535.959106 198.224014,568.504761 
	C201.993759,568.504761 205.057983,568.504761 208.618362,568.504761 
	C208.618362,566.363831 208.616531,564.567505 208.618622,562.771179 
	C208.641693,542.978455 208.689362,523.185730 208.679703,503.392975 
	C208.674118,491.925751 208.576569,480.458588 208.755035,468.170044 
	C210.200378,467.388184 211.587555,466.105042 213.103226,465.929199 
	C216.225876,465.566864 219.429108,465.947266 222.573532,465.698273 
	C223.651337,465.612915 225.492340,464.629303 225.548370,463.939453 
	C225.843506,460.305359 225.805573,456.625336 225.556274,452.983612 
	C225.512238,452.340363 223.924850,451.300446 223.042557,451.292542 
	C210.608322,451.181152 198.172791,451.216797 185.295044,451.216797 
	C185.295044,456.278351 185.295044,460.801575 185.295044,465.882599 
	C188.391525,465.882599 191.202942,466.083893 193.972687,465.830200 
	C197.223694,465.532410 198.555344,466.871094 198.224014,470.910919 
M463.281647,591.269287 
	C475.872955,591.260803 479.932068,588.139832 482.326324,576.441162 
	C482.689056,574.668823 482.680054,572.800842 482.679871,570.977112 
	C482.678925,561.321167 482.602631,551.665222 482.595093,542.009277 
	C482.570862,511.042877 482.589294,480.076477 482.537689,449.110138 
	C482.522797,440.183990 477.586151,432.734741 470.044220,432.444702 
	C454.472198,431.845764 438.861084,432.264313 423.129211,432.264313 
	C423.129211,485.365234 423.129211,538.068420 423.129211,591.269836 
	C436.424530,591.269836 449.377625,591.269836 463.281647,591.269287 
M833.058472,591.269653 
	C837.833618,591.825012 842.049011,590.221008 844.031738,586.006836 
	C846.222595,581.350647 848.491333,576.145813 848.538757,571.159119 
	C848.912476,531.869568 848.773315,492.575043 848.750854,453.282074 
	C848.749329,450.632202 848.611206,447.950623 848.192749,445.338867 
	C847.034668,438.109711 841.727966,432.553986 834.408569,432.341492 
	C819.971497,431.922272 805.513550,432.217896 790.854370,432.217896 
	C790.854370,485.371521 790.854370,538.184998 790.854370,591.270447 
	C804.882324,591.270447 818.515991,591.270447 833.058472,591.269653 
M574.396057,455.601593 
	C574.372314,454.769104 574.278503,453.931793 574.335205,453.104797 
	C575.356567,438.210876 566.730164,431.804321 552.598755,431.760406 
	C546.602661,431.741791 540.606323,431.744537 534.610229,431.759979 
	C521.508240,431.793671 514.529419,438.718536 514.495483,451.745239 
	C514.396057,489.886932 514.564087,528.032166 514.031067,566.167725 
	C513.904846,575.196655 516.299072,582.490479 522.496338,588.625427 
	C523.948975,590.063538 526.333557,591.303589 528.314270,591.341553 
	C539.301941,591.552551 550.301575,591.511719 561.286438,591.190918 
	C563.541687,591.125000 566.982849,590.096313 567.760620,588.487854 
	C570.544800,582.729736 574.255737,576.557007 574.338928,570.496155 
	C574.859619,532.529358 574.494812,494.550415 574.396057,455.601593 
M625.785767,552.552490 
	C625.780334,549.886047 626.018066,547.185547 625.651855,544.569641 
	C625.501648,543.496582 624.085144,541.804993 623.181396,541.763245 
	C617.564575,541.503540 611.929688,541.632507 606.021729,541.632507 
	C606.021729,553.171814 606.025146,564.143433 606.020630,575.115051 
	C606.017090,583.893188 610.666565,592.346313 622.055603,591.794250 
	C632.350586,591.295288 642.659546,590.937073 652.964722,590.865479 
	C657.039612,590.837158 659.933350,589.044189 661.429688,585.808105 
	C663.205811,581.967224 665.000305,577.708374 665.095764,573.591431 
	C665.489502,556.603455 665.456848,539.596863 665.157288,522.604614 
	C664.953552,511.049286 660.319092,506.437622 648.912781,505.194214 
	C642.973022,504.546722 637.037781,503.541718 631.085999,503.422150 
	C626.439270,503.328827 625.670837,501.289490 625.728821,497.263184 
	C625.920776,483.934692 625.798706,470.601715 625.797241,457.270447 
	C625.796997,455.358765 625.797180,453.447083 625.797180,451.575867 
	C632.826416,451.575867 639.074280,451.575867 645.923218,451.575867 
	C645.923218,461.087921 645.923218,470.302399 645.923218,479.560791 
	C652.634888,479.560791 658.734253,479.560791 665.036926,479.560791 
	C665.150085,478.216522 665.334412,477.080505 665.327087,475.945740 
	C665.269043,466.952423 665.893738,457.880524 664.918884,448.985077 
	C663.534424,436.352386 662.136963,432.368561 645.149902,431.815216 
	C637.326050,431.560364 629.485352,431.662292 621.655396,431.789459 
	C610.665588,431.967957 606.247803,436.491760 606.229126,447.464600 
	C606.196228,466.794861 606.328979,486.126190 606.146912,505.454773 
	C606.105225,509.877716 607.711609,513.172546 610.750854,516.028748 
	C615.496399,520.488464 621.028564,523.283142 627.596008,523.794250 
	C632.564270,524.180847 637.570374,524.300476 642.483276,525.043396 
	C643.893433,525.256592 646.119629,527.204346 646.140381,528.388977 
	C646.393616,542.832703 646.304932,557.282410 646.304932,572.229736 
	C641.145508,572.229736 636.493591,571.904114 631.909241,572.320923 
	C627.286377,572.741211 625.927490,570.367310 625.822266,566.532715 
	C625.703430,562.203247 625.788879,557.868164 625.785767,552.552490 
M346.775299,582.475159 
	C346.775299,585.245056 346.775299,588.015015 346.775299,590.735352 
	C359.454865,590.735352 371.542267,590.735352 383.907654,590.735352 
	C383.907654,584.042297 383.907654,577.654053 383.907654,570.650635 
	C377.094299,570.650635 370.544830,570.650635 364.064911,570.650635 
	C364.064911,554.279419 364.064911,538.525574 364.064911,522.327087 
	C367.628113,522.327087 370.870575,522.327087 374.501404,522.327087 
	C374.501404,516.034851 374.501404,510.194580 374.501404,504.277618 
	C370.664093,504.277618 367.402130,504.277618 364.125916,504.277618 
	C364.125916,486.396545 364.125916,468.680969 364.125916,450.602692 
	C370.931458,450.602692 377.372162,450.602692 383.839996,450.602692 
	C383.839996,444.193207 383.839996,438.158752 383.839996,432.219604 
	C371.368774,432.219604 359.318420,432.219604 346.775879,432.219604 
	C346.775879,482.241516 346.775879,531.860168 346.775299,582.475159 
M690.819092,487.500000 
	C690.819092,514.411316 690.819092,541.322632 690.819092,568.050049 
	C701.193420,568.050049 710.884766,568.050049 720.555786,568.050049 
	C720.555786,564.599976 720.555786,561.881592 720.555786,558.631348 
	C714.927734,558.631348 709.699707,558.631348 704.354675,558.631348 
	C704.354675,545.003540 704.354675,531.917542 704.354675,518.125916 
	C710.287781,518.125916 715.999390,518.125916 721.797729,518.125916 
	C721.797729,513.516296 721.797729,509.617676 721.797729,505.161194 
	C715.876831,505.161194 710.298462,505.161194 704.329834,505.161194 
	C704.329834,491.558411 704.329834,478.517975 704.329834,464.979126 
	C709.589172,464.979126 714.652649,464.979126 719.899902,464.979126 
	C719.899902,460.572083 719.899902,456.663391 719.899902,452.443665 
	C710.220703,452.443665 700.829224,452.443665 690.819214,452.443665 
	C690.819214,463.965271 690.819214,475.232635 690.819092,487.500000 
z"/>
<path fill="#0B7B99" opacity="1.000000" stroke="none" 
	d="
M131.000000,1025.000000 
	C87.681175,1025.000000 44.362350,1025.000000 1.050130,1025.000000 
	C1.056737,683.666687 1.056737,342.333313 1.056737,1.000000 
	C44.098976,1.000000 87.084473,1.000000 130.542831,1.427906 
	C131.338898,7.148632 131.976425,12.444665 131.922363,17.733629 
	C131.794998,30.193645 131.066086,42.650085 131.056656,55.108334 
	C130.975266,162.728149 130.999420,270.348053 130.528290,378.038574 
	C102.148338,378.109222 74.232216,378.109222 45.771824,378.109222 
	C45.771824,380.562775 45.771950,382.352936 45.771801,384.143097 
	C45.767723,433.266022 45.758373,482.388977 45.761242,531.511902 
	C45.763371,567.979492 45.841797,604.447266 45.708099,640.914307 
	C45.693085,645.009338 46.765354,646.513855 50.993565,646.273132 
	C56.802265,645.942383 62.645016,646.196045 68.473083,646.221497 
	C88.947327,646.310852 109.421532,646.409729 129.926956,646.934570 
	C130.300674,663.149902 130.927017,678.935425 130.940079,694.721558 
	C131.031174,804.814270 130.995239,914.907166 131.000000,1025.000000 
z"/>
<path fill="#050503" opacity="1.000000" stroke="none" 
	d="
M129.895752,646.505066 
	C109.421532,646.409729 88.947327,646.310852 68.473083,646.221497 
	C62.645016,646.196045 56.802265,645.942383 50.993565,646.273132 
	C46.765354,646.513855 45.693085,645.009338 45.708099,640.914307 
	C45.841797,604.447266 45.763371,567.979492 45.761242,531.511902 
	C45.758373,482.388977 45.767723,433.266022 45.771801,384.143097 
	C45.771950,382.352936 45.771824,380.562775 45.771824,378.109222 
	C74.232216,378.109222 102.148338,378.109222 130.992554,378.114166 
	C142.372635,378.334351 152.824158,378.704254 163.276703,378.736053 
	C195.657761,378.834595 228.039200,378.811584 260.420502,378.808197 
	C262.568176,378.807953 264.715851,378.577209 267.285095,378.595398 
	C269.165894,378.670593 270.625061,378.604126 272.537506,378.630798 
	C282.294830,378.631378 291.598877,378.538788 301.335022,378.581482 
	C303.545197,378.638306 305.323273,378.559875 307.416687,378.578735 
	C308.159302,378.597046 308.586639,378.518036 309.466492,378.555206 
	C331.347656,378.522522 352.776031,378.337006 374.204865,378.234711 
	C397.801422,378.122070 421.398376,378.085938 444.995148,378.016479 
	C482.289581,378.058411 519.584045,378.130951 556.878479,378.136414 
	C656.275757,378.151001 755.673096,378.136688 855.996338,378.144318 
	C866.745361,378.362000 876.567749,378.700317 886.391663,378.748962 
	C906.390076,378.848022 926.389343,378.829437 946.388123,378.785370 
	C961.546875,378.751984 976.705444,378.604034 992.312134,378.626709 
	C995.203491,378.669495 997.646912,378.592621 1000.542969,378.609253 
	C1008.997131,378.801849 1016.998535,378.900909 1025.000000,379.000000 
	C1025.000000,386.354248 1025.000000,393.708496 1025.000000,401.531372 
	C983.678589,401.939270 942.357178,401.814514 901.035767,401.829834 
	C780.727966,401.874451 660.420166,402.006531 540.112366,402.045898 
	C385.640808,402.096405 231.169266,402.090118 76.697708,402.108276 
	C75.402184,402.108429 74.106667,402.108307 72.599670,402.108307 
	C72.599670,475.810272 72.599670,549.102173 72.599670,622.889099 
	C389.696289,622.889099 706.882263,622.889099 1024.534180,622.944580 
	C1025.000000,630.354248 1025.000000,637.708496 1024.532227,645.563660 
	C1016.394714,646.139954 1008.724854,646.215271 1000.606201,646.198242 
	C997.419373,646.132324 994.681274,646.158875 991.481079,646.131958 
	C983.884521,646.067322 976.750122,646.045349 969.615723,646.046936 
	C941.742615,646.053101 913.869507,646.066650 885.624695,646.016663 
	C884.503296,645.996826 883.753662,646.037781 882.630249,646.018311 
	C881.502869,645.996704 880.749146,646.035522 879.554932,646.013977 
	C876.744995,646.002991 874.375549,646.052368 871.542786,646.040222 
	C866.356873,646.121033 861.634338,646.263428 856.911743,646.405762 
	C842.251282,646.340698 827.590759,646.217224 812.930298,646.221069 
	C754.104797,646.236633 695.279358,646.312134 636.453857,646.326538 
	C572.971497,646.342041 509.489105,646.313904 445.088135,646.271729 
	C428.215790,646.200134 412.262054,646.122925 396.308380,646.131287 
	C366.898041,646.146667 337.487732,646.212341 307.634094,646.175903 
	C305.100922,646.208801 303.011017,646.322937 300.466431,646.348755 
	C291.700317,646.315186 283.388855,646.369934 274.632111,646.315674 
	C271.756836,646.260681 269.326874,646.314758 266.440308,646.300598 
	C221.608093,646.213867 177.232452,646.193237 132.856812,646.190613 
	C131.869797,646.190552 130.882767,646.395691 129.895752,646.505066 
z"/>
<path fill="#09687C" opacity="1.000000" stroke="none" 
	d="
M308.077393,646.257019 
	C337.487732,646.212341 366.898041,646.146667 396.308380,646.131287 
	C412.262054,646.122925 428.215790,646.200134 444.633789,646.354065 
	C445.063751,709.567810 445.014679,772.666077 444.999237,835.764404 
	C444.983887,898.530518 445.002350,961.296631 445.002991,1024.531372 
	C397.312439,1025.000000 349.624878,1025.000000 301.481628,1024.605225 
	C303.005188,1016.350647 305.368286,1008.563843 306.882172,1000.615295 
	C309.851044,985.027039 311.559814,969.160461 315.245178,953.757141 
	C319.491241,936.010498 326.994354,919.530273 340.200195,906.281799 
	C348.047607,898.409058 356.318207,890.915955 363.697418,882.627930 
	C377.720886,866.877441 389.506714,849.830933 392.234528,828.032654 
	C394.875031,806.932068 391.742065,787.262390 380.138611,768.977844 
	C372.809662,757.428955 362.105774,749.599915 351.995911,741.111267 
	C338.492920,729.773804 326.620758,716.822327 319.481720,700.904968 
	C311.807526,683.794495 308.569794,665.168701 308.077393,646.257019 
z"/>
<path fill="#09687C" opacity="1.000000" stroke="none" 
	d="
M444.992249,377.546509 
	C421.398376,378.085938 397.801422,378.122070 374.204865,378.234711 
	C352.776031,378.337006 331.347656,378.522522 309.445679,378.260010 
	C308.326111,377.232819 307.679871,376.616974 307.026123,375.568604 
	C308.349365,365.298889 309.695251,355.463715 311.007385,345.624054 
	C313.002930,330.659576 317.734924,316.557709 324.527222,303.133423 
	C333.082245,286.225250 347.015198,274.251526 361.450867,262.623627 
	C371.377686,254.627609 379.364990,244.472244 384.532715,233.045242 
	C391.191284,218.321518 394.970306,202.487457 391.890961,186.046570 
	C390.430969,178.251587 388.883911,170.244888 385.754303,163.038528 
	C379.392853,148.390686 369.098907,136.405029 357.793610,125.170372 
	C346.873016,114.318008 334.506042,104.560211 327.264404,90.568466 
	C322.936340,82.206161 318.975372,73.496071 316.224762,64.520798 
	C313.624054,56.034569 312.759277,47.008072 311.242035,38.200081 
	C309.107635,25.809309 307.075714,13.400881 305.000000,1.000001 
	C351.354218,1.000000 397.708466,1.000000 444.531342,1.000000 
	C444.996460,126.358849 444.992920,251.717697 444.992249,377.546509 
z"/>
<path fill="#09687C" opacity="1.000000" stroke="none" 
	d="
M991.864075,378.507080 
	C976.705444,378.604034 961.546875,378.751984 946.388123,378.785370 
	C926.389343,378.829437 906.390076,378.848022 886.391663,378.748962 
	C876.567749,378.700317 866.745361,378.362000 856.460938,378.075745 
	C855.970215,368.418335 856.019592,358.838928 855.893494,349.261841 
	C855.696777,334.316376 855.381226,319.372467 855.115601,304.427917 
	C855.083130,302.598389 855.014038,300.768799 855.020020,298.939453 
	C855.344543,199.938721 855.675354,100.938011 856.002808,1.468651 
	C901.020874,1.000000 946.041809,1.000000 991.534790,1.429683 
	C992.038147,5.619985 991.935547,9.387300 992.123230,13.140103 
	C993.139832,33.470692 989.261414,52.922863 982.589478,72.071594 
	C975.906250,91.253029 963.629028,106.237206 948.821777,119.428223 
	C938.119751,128.962051 927.731567,138.734039 919.820068,150.785919 
	C912.771423,161.523422 909.150452,173.252625 907.708435,186.185242 
	C905.194397,208.732681 910.083618,229.152542 924.296631,246.417648 
	C935.125061,259.571289 947.711426,271.333466 960.008545,283.204102 
	C969.271790,292.146027 976.557556,302.414673 981.331116,314.112091 
	C989.720276,334.669434 992.063477,356.432007 991.864075,378.507080 
z"/>
<path fill="#09687C" opacity="1.000000" stroke="none" 
	d="
M266.863525,378.453705 
	C264.715851,378.577209 262.568176,378.807953 260.420502,378.808197 
	C228.039200,378.811584 195.657761,378.834595 163.276703,378.736053 
	C152.824158,378.704254 142.372635,378.334351 131.456390,378.043518 
	C130.999420,270.348053 130.975266,162.728149 131.056656,55.108334 
	C131.066086,42.650085 131.794998,30.193645 131.922363,17.733629 
	C131.976425,12.444665 131.338898,7.148632 131.007843,1.427906 
	C177.020889,1.000000 223.041794,1.000000 269.531525,1.422161 
	C266.010437,22.809591 262.446930,43.867462 257.919037,64.715897 
	C252.660217,88.929779 238.308029,107.494102 219.353226,122.763924 
	C210.388855,129.985535 202.270264,138.007614 195.797760,147.513824 
	C189.267746,157.104462 185.414825,167.916916 183.460709,179.284027 
	C180.061295,199.058563 181.581085,218.337448 190.810135,236.508286 
	C198.307434,251.269547 210.869965,261.515167 223.077621,272.039459 
	C233.067825,280.652100 242.315247,290.026031 248.272430,301.884216 
	C255.041153,315.357727 260.960938,329.237427 262.698151,344.492310 
	C263.988586,355.823914 265.468170,367.134033 266.863525,378.453705 
z"/>
<path fill="#09687C" opacity="1.000000" stroke="none" 
	d="
M129.926956,646.934570 
	C130.882767,646.395691 131.869797,646.190552 132.856812,646.190613 
	C177.232452,646.193237 221.608093,646.213867 266.444946,646.681519 
	C266.608643,648.589050 266.223724,650.035767 266.026703,651.507629 
	C263.176910,672.797546 259.336212,693.728333 247.409729,712.296387 
	C240.384338,723.234070 232.968079,733.471252 222.415787,741.610901 
	C207.884155,752.820129 195.318741,765.937012 188.087677,783.502014 
	C183.378143,794.941956 180.599869,806.714172 181.290100,818.856323 
	C181.856461,828.819397 182.531921,839.117371 187.604858,848.239197 
	C192.306488,856.693420 196.613068,865.446045 202.129349,873.343811 
	C206.627197,879.783508 212.654678,885.154846 218.115814,891.213501 
	C218.426361,891.693909 218.683533,891.879761 219.237061,892.146301 
	C219.978622,892.874023 220.482361,893.440125 221.139374,894.301514 
	C226.311813,900.351074 231.562637,905.921753 236.297073,911.901306 
	C243.820435,921.403320 251.474564,931.134338 254.343323,943.094849 
	C257.612061,956.722900 259.355682,970.710022 262.049225,984.484985 
	C264.010468,994.515015 266.437866,1004.453796 268.656372,1014.433533 
	C269.439270,1017.955322 270.218903,1021.477844 271.000000,1025.000000 
	C224.645767,1025.000000 178.291550,1025.000000 131.468658,1025.000000 
	C130.995239,914.907166 131.031174,804.814270 130.940079,694.721558 
	C130.927017,678.935425 130.300674,663.149902 129.926956,646.934570 
z"/>
<path fill="#09687C" opacity="1.000000" stroke="none" 
	d="
M885.996399,646.077454 
	C913.869507,646.066650 941.742615,646.053101 969.615723,646.046936 
	C976.750122,646.045349 983.884521,646.067322 991.495483,646.537720 
	C990.267639,657.572754 989.163757,668.291870 986.683716,678.682556 
	C984.367310,688.388000 981.111450,697.958313 977.325989,707.201904 
	C972.412659,719.199585 963.635925,728.508118 953.728882,737.161255 
	C941.644348,746.992371 930.313416,757.052307 921.564026,769.785583 
	C914.021423,780.762512 910.012329,792.609375 908.780029,805.911499 
	C907.691772,817.659180 908.506958,829.066711 911.024536,840.426392 
	C915.152283,859.051453 927.331726,872.784912 939.816772,886.128662 
	C947.275330,894.100159 955.883057,900.997559 963.329773,908.979065 
	C973.058655,919.406494 979.600281,931.782104 984.144348,945.381592 
	C991.053101,966.057983 991.291748,987.450623 991.565552,1008.891235 
	C986.396912,1009.018188 981.693115,1009.086304 976.525146,1009.092529 
	C971.040161,1009.075928 966.019348,1009.121033 960.534912,1009.095032 
	C955.143799,1009.023926 950.216187,1009.023926 945.000000,1009.023926 
	C945.000000,1014.734070 945.000000,1019.867004 945.000000,1025.000000 
	C915.645752,1025.000000 886.291565,1025.000000 856.468628,1025.000000 
	C855.995117,962.709412 856.046753,900.418701 855.941406,838.128296 
	C855.918091,824.340698 855.021973,810.552673 855.079224,796.767151 
	C855.226990,761.160706 855.633545,725.554993 856.040222,689.950134 
	C856.202698,675.724976 856.636963,661.502869 856.929626,646.842651 
	C861.634338,646.263428 866.356873,646.121033 871.645325,646.402222 
	C874.981018,648.389038 877.701660,649.441956 879.995483,646.074341 
	C880.749146,646.035522 881.502869,645.996704 882.691833,646.334473 
	C884.083557,646.499756 885.039978,646.288635 885.996399,646.077454 
z"/>
<path fill="#036071" opacity="1.000000" stroke="none" 
	d="
M300.902954,378.446198 
	C291.598877,378.538788 282.294830,378.631378 272.535431,378.254578 
	C271.948486,371.048157 272.544647,364.199463 271.531769,357.597626 
	C269.503845,344.379517 266.613800,331.292969 264.045715,318.158752 
	C261.094391,303.064697 253.398605,290.208435 243.324356,279.152985 
	C232.286682,267.040222 219.480591,256.550171 208.277328,244.574448 
	C192.186401,227.374069 189.279617,206.359543 192.512482,183.813614 
	C195.982162,159.616348 210.943787,142.730759 227.706314,126.813560 
	C233.927643,120.905975 240.277634,115.040924 245.785522,108.497078 
	C253.762451,99.019768 259.525146,88.118652 262.780792,76.100960 
	C265.464874,66.193108 268.308136,56.265717 269.997223,46.165760 
	C272.500977,31.194593 274.046539,16.063190 276.000000,1.000000 
	C281.354919,1.000000 286.709869,1.000000 292.533142,1.431420 
	C295.002594,11.905308 296.833405,21.985420 299.043579,31.981655 
	C302.603241,48.081673 304.460876,64.711281 312.124146,79.626945 
	C316.964172,89.047478 321.579041,98.846855 328.051544,107.098389 
	C336.014404,117.249931 345.662598,126.110680 354.841492,135.269669 
	C368.006805,148.406448 378.217377,163.131470 382.442749,181.631592 
	C384.465485,190.487793 384.888428,199.264099 383.423370,208.139847 
	C379.663422,230.918839 365.378967,247.186600 349.417572,262.291016 
	C337.438049,273.627289 325.492065,285.180573 318.481323,300.248718 
	C312.933807,312.171997 308.095917,324.739532 305.285248,337.535461 
	C302.360474,350.850800 302.246185,364.783478 300.902954,378.446198 
M281.443451,135.376099 
	C278.552399,139.808548 275.788513,144.330460 272.745117,148.655731 
	C265.231049,159.334686 257.409515,169.555420 253.922119,182.756332 
	C249.936554,197.843079 253.189453,211.241318 260.686310,223.776276 
	C267.382721,234.972794 275.475037,245.334412 283.254028,256.680847 
	C284.498779,258.686279 285.743561,260.691711 287.041840,262.783386 
	C290.466248,257.469330 293.642731,252.619019 296.739227,247.718216 
	C303.111206,237.633484 309.802155,227.724426 315.626007,217.330765 
	C318.309906,212.540894 320.190979,206.888184 320.819977,201.440125 
	C322.474915,187.105316 318.984741,173.569153 311.130402,161.547104 
	C303.510315,149.883560 295.085602,138.745667 286.716248,126.957161 
	C284.805511,130.162247 283.379486,132.554291 281.443451,135.376099 
z"/>
<path fill="#036071" opacity="1.000000" stroke="none" 
	d="
M275.077393,646.424744 
	C283.388855,646.369934 291.700317,646.315186 300.488708,646.776245 
	C301.062958,651.948914 300.557617,656.713684 301.368652,661.242737 
	C303.988220,675.871033 306.530182,690.412170 313.613190,703.972229 
	C320.405121,716.975159 327.353729,729.630798 337.676270,740.197815 
	C347.647949,750.405762 357.902649,760.368774 367.384369,771.016968 
	C384.164764,789.861755 387.321259,811.804749 380.654236,835.642517 
	C377.686310,846.254089 371.897461,855.481018 365.225555,863.867188 
	C356.510834,874.821045 346.577728,884.801514 337.243958,895.267822 
	C320.239960,914.334961 309.749756,936.673035 305.099213,961.639648 
	C302.496185,975.614258 300.999084,989.794800 299.001617,1003.882263 
	C298.003479,1010.921875 297.000702,1017.960754 296.000000,1025.000000 
	C290.645081,1025.000000 285.290131,1025.000000 279.418182,1024.617920 
	C277.276611,1017.704651 274.999176,1011.254028 274.179352,1004.623230 
	C272.924103,994.470642 272.972748,984.162354 271.902100,973.979675 
	C271.041168,965.791077 270.007172,957.512024 267.880005,949.587219 
	C262.997711,931.398132 256.247803,913.967773 242.520645,900.286255 
	C237.877899,895.658875 232.853409,891.414490 227.850586,886.700073 
	C223.261230,881.900696 218.896286,877.322937 214.374115,872.906189 
	C202.905685,861.705261 194.996048,848.215515 192.672562,832.539246 
	C190.995987,821.227661 190.174286,809.000183 192.696869,798.038635 
	C196.566422,781.223999 207.567795,767.917114 221.032623,756.975769 
	C235.696335,745.060120 249.138687,732.003357 257.518127,714.745056 
	C260.822388,707.939636 263.251831,700.680359 265.718750,693.503601 
	C270.962311,678.249084 273.953979,662.514648 275.077393,646.424744 
M283.272858,880.643677 
	C284.311707,882.404114 285.350525,884.164551 286.554199,886.204285 
	C298.757355,871.916138 308.647095,856.945435 316.167328,840.710083 
	C319.623047,833.249634 321.612671,824.403076 321.555908,816.203857 
	C321.486816,806.230042 318.917542,796.263062 312.582458,787.698364 
	C309.051239,782.924316 306.843048,777.192139 303.531494,772.230225 
	C298.540222,764.751465 294.113739,756.714844 286.341217,751.475586 
	C285.790985,751.913391 285.302460,752.149353 285.042236,752.538086 
	C284.305237,753.639099 283.661652,754.802673 282.400238,756.288452 
	C272.761719,770.122437 262.335236,783.455444 255.863266,799.262085 
	C249.352112,815.164368 251.222092,830.842590 259.186523,845.211853 
	C265.970062,857.450500 274.969788,868.460693 283.272858,880.643677 
z"/>
<path fill="#036071" opacity="1.000000" stroke="none" 
	d="
M1025.000000,378.531342 
	C1016.998535,378.900909 1008.997131,378.801849 1000.515259,378.191406 
	C999.571838,360.418884 996.914978,343.523376 993.324341,326.601990 
	C987.645752,299.840607 972.374512,279.894043 952.346558,262.425995 
	C941.759766,253.192383 931.342896,243.471649 925.544556,230.103790 
	C919.773499,216.798813 915.130493,203.405060 916.864563,188.383087 
	C918.938904,170.413315 925.637756,154.875137 938.444458,142.046204 
	C947.861328,132.612946 957.656128,123.525475 966.620117,113.680763 
	C974.865662,104.625191 982.370972,94.930557 987.338806,83.454620 
	C993.125488,70.087044 997.423645,56.252014 998.789795,41.853619 
	C1000.074036,28.319323 999.664307,14.624301 1000.000000,0.999999 
	C1008.309143,1.000000 1016.618225,1.000000 1025.000000,1.000000 
	C1025.000000,42.687534 1025.000000,84.375107 1024.649536,126.556808 
	C1017.184082,133.694000 1010.069092,140.337067 1002.661987,147.146271 
	C996.963318,157.508621 990.950012,167.438843 986.329712,177.979675 
	C982.140564,187.537064 980.858093,198.142242 984.719910,208.064804 
	C988.651917,218.167664 993.933777,227.776291 999.084778,237.353821 
	C1000.543152,240.065414 1003.613220,241.910202 1005.993408,244.487671 
	C1012.361694,250.548553 1018.680847,256.274261 1025.000000,262.000000 
	C1025.000000,300.687561 1025.000000,339.375122 1025.000000,378.531342 
z"/>
<path fill="#036071" opacity="1.000000" stroke="none" 
	d="
M1001.054993,646.290649 
	C1008.724854,646.215271 1016.394714,646.139954 1024.532227,646.032288 
	C1025.000000,680.687561 1025.000000,715.375122 1024.633423,750.528564 
	C1022.653870,751.783997 1020.791199,752.282776 1019.472900,753.415344 
	C1014.693909,757.520813 1009.959045,761.699890 1005.497620,766.142456 
	C1003.609680,768.022278 1002.441589,770.625122 1000.655457,773.073730 
	C992.774170,781.059998 988.203308,790.825317 985.243896,800.882446 
	C978.600952,823.457581 986.094360,843.155640 999.987061,861.376404 
	C1005.719910,868.282410 1011.246765,874.982239 1017.150574,881.331604 
	C1019.306091,883.649780 1022.357422,885.134827 1025.000000,887.000000 
	C1025.000000,927.354248 1025.000000,967.708435 1024.533081,1008.529541 
	C1019.042053,1009.047852 1014.017883,1009.099304 1008.538269,1009.085938 
	C1004.720215,1008.958313 1001.357666,1008.895386 997.995850,1008.404114 
	C998.298462,998.862854 999.652222,989.636108 998.681152,980.661011 
	C996.716431,962.502197 991.971558,945.062073 983.954102,928.345581 
	C975.802307,911.348999 963.221130,898.124634 950.865479,884.525146 
	C943.638977,876.571045 935.217834,869.345520 929.569519,860.383362 
	C914.480347,836.441467 911.070251,810.487000 922.233459,784.016296 
	C928.429932,769.322693 939.851013,758.168030 952.293945,747.834595 
	C953.838867,746.589417 955.074646,745.480713 956.332520,744.397583 
	C966.163757,735.931641 975.214539,726.818420 982.225464,715.743225 
	C988.468262,705.881531 991.731812,694.970947 994.130310,683.798706 
	C996.797974,671.373230 998.776428,658.799744 1001.054993,646.290649 
z"/>
<path fill="#0A4F60" opacity="1.000000" stroke="none" 
	d="
M999.555786,0.999999 
	C999.664307,14.624301 1000.074036,28.319323 998.789795,41.853619 
	C997.423645,56.252014 993.125488,70.087044 987.338806,83.454620 
	C982.370972,94.930557 974.865662,104.625191 966.620117,113.680763 
	C957.656128,123.525475 947.861328,132.612946 938.444458,142.046204 
	C925.637756,154.875137 918.938904,170.413315 916.864563,188.383087 
	C915.130493,203.405060 919.773499,216.798813 925.544556,230.103790 
	C931.342896,243.471649 941.759766,253.192383 952.346558,262.425995 
	C972.374512,279.894043 987.645752,299.840607 993.324341,326.601990 
	C996.914978,343.523376 999.571838,360.418884 1000.062500,378.097900 
	C997.646912,378.592621 995.203491,378.669495 992.312134,378.626709 
	C992.063477,356.432007 989.720276,334.669434 981.331116,314.112091 
	C976.557556,302.414673 969.271790,292.146027 960.008545,283.204102 
	C947.711426,271.333466 935.125061,259.571289 924.296631,246.417648 
	C910.083618,229.152542 905.194397,208.732681 907.708435,186.185242 
	C909.150452,173.252625 912.771423,161.523422 919.820068,150.785919 
	C927.731567,138.734039 938.119751,128.962051 948.821777,119.428223 
	C963.629028,106.237206 975.906250,91.253029 982.589478,72.071594 
	C989.261414,52.922863 993.139832,33.470692 992.123230,13.140103 
	C991.935547,9.387300 992.038147,5.619985 992.003418,1.429683 
	C994.370544,1.000000 996.741150,1.000000 999.555786,0.999999 
z"/>
<path fill="#095161" opacity="1.000000" stroke="none" 
	d="
M296.416687,1025.000000 
	C297.000702,1017.960754 298.003479,1010.921875 299.001617,1003.882263 
	C300.999084,989.794800 302.496185,975.614258 305.099213,961.639648 
	C309.749756,936.673035 320.239960,914.334961 337.243958,895.267822 
	C346.577728,884.801514 356.510834,874.821045 365.225555,863.867188 
	C371.897461,855.481018 377.686310,846.254089 380.654236,835.642517 
	C387.321259,811.804749 384.164764,789.861755 367.384369,771.016968 
	C357.902649,760.368774 347.647949,750.405762 337.676270,740.197815 
	C327.353729,729.630798 320.405121,716.975159 313.613190,703.972229 
	C306.530182,690.412170 303.988220,675.871033 301.368652,661.242737 
	C300.557617,656.713684 301.062958,651.948914 300.943359,646.864563 
	C303.011017,646.322937 305.100922,646.208801 307.634094,646.175903 
	C308.569794,665.168701 311.807526,683.794495 319.481720,700.904968 
	C326.620758,716.822327 338.492920,729.773804 351.995911,741.111267 
	C362.105774,749.599915 372.809662,757.428955 380.138611,768.977844 
	C391.742065,787.262390 394.875031,806.932068 392.234528,828.032654 
	C389.506714,849.830933 377.720886,866.877441 363.697418,882.627930 
	C356.318207,890.915955 348.047607,898.409058 340.200195,906.281799 
	C326.994354,919.530273 319.491241,936.010498 315.245178,953.757141 
	C311.559814,969.160461 309.851044,985.027039 306.882172,1000.615295 
	C305.368286,1008.563843 303.005188,1016.350647 301.012970,1024.605225 
	C299.611115,1025.000000 298.222198,1025.000000 296.416687,1025.000000 
z"/>
<path fill="#095161" opacity="1.000000" stroke="none" 
	d="
M301.335022,378.581482 
	C302.246185,364.783478 302.360474,350.850800 305.285248,337.535461 
	C308.095917,324.739532 312.933807,312.171997 318.481323,300.248718 
	C325.492065,285.180573 337.438049,273.627289 349.417572,262.291016 
	C365.378967,247.186600 379.663422,230.918839 383.423370,208.139847 
	C384.888428,199.264099 384.465485,190.487793 382.442749,181.631592 
	C378.217377,163.131470 368.006805,148.406448 354.841492,135.269669 
	C345.662598,126.110680 336.014404,117.249931 328.051544,107.098389 
	C321.579041,98.846855 316.964172,89.047478 312.124146,79.626945 
	C304.460876,64.711281 302.603241,48.081673 299.043579,31.981655 
	C296.833405,21.985420 295.002594,11.905308 293.000763,1.431420 
	C296.692902,1.000000 300.385834,1.000000 304.539368,1.000001 
	C307.075714,13.400881 309.107635,25.809309 311.242035,38.200081 
	C312.759277,47.008072 313.624054,56.034569 316.224762,64.520798 
	C318.975372,73.496071 322.936340,82.206161 327.264404,90.568466 
	C334.506042,104.560211 346.873016,114.318008 357.793610,125.170372 
	C369.098907,136.405029 379.392853,148.390686 385.754303,163.038528 
	C388.883911,170.244888 390.430969,178.251587 391.890961,186.046570 
	C394.970306,202.487457 391.191284,218.321518 384.532715,233.045242 
	C379.364990,244.472244 371.377686,254.627609 361.450867,262.623627 
	C347.015198,274.251526 333.082245,286.225250 324.527222,303.133423 
	C317.734924,316.557709 313.002930,330.659576 311.007385,345.624054 
	C309.695251,355.463715 308.349365,365.298889 307.016357,375.881042 
	C307.043213,377.244507 307.072296,377.862976 307.101379,378.481445 
	C305.323273,378.559875 303.545197,378.638306 301.335022,378.581482 
z"/>
<path fill="#095161" opacity="1.000000" stroke="none" 
	d="
M275.571533,1.000000 
	C274.046539,16.063190 272.500977,31.194593 269.997223,46.165760 
	C268.308136,56.265717 265.464874,66.193108 262.780792,76.100960 
	C259.525146,88.118652 253.762451,99.019768 245.785522,108.497078 
	C240.277634,115.040924 233.927643,120.905975 227.706314,126.813560 
	C210.943787,142.730759 195.982162,159.616348 192.512482,183.813614 
	C189.279617,206.359543 192.186401,227.374069 208.277328,244.574448 
	C219.480591,256.550171 232.286682,267.040222 243.324356,279.152985 
	C253.398605,290.208435 261.094391,303.064697 264.045715,318.158752 
	C266.613800,331.292969 269.503845,344.379517 271.531769,357.597626 
	C272.544647,364.199463 271.948486,371.048157 272.082184,378.161438 
	C270.625061,378.604126 269.165894,378.670593 267.285095,378.595398 
	C265.468170,367.134033 263.988586,355.823914 262.698151,344.492310 
	C260.960938,329.237427 255.041153,315.357727 248.272430,301.884216 
	C242.315247,290.026031 233.067825,280.652100 223.077621,272.039459 
	C210.869965,261.515167 198.307434,251.269547 190.810135,236.508286 
	C181.581085,218.337448 180.061295,199.058563 183.460709,179.284027 
	C185.414825,167.916916 189.267746,157.104462 195.797760,147.513824 
	C202.270264,138.007614 210.388855,129.985535 219.353226,122.763924 
	C238.308029,107.494102 252.660217,88.929779 257.919037,64.715897 
	C262.446930,43.867462 266.010437,22.809591 270.000183,1.422161 
	C271.714355,1.000000 273.428711,1.000000 275.571533,1.000000 
z"/>
<path fill="#E3E0F8" opacity="1.000000" stroke="none" 
	d="
M989.864624,552.000977 
	C988.437805,552.093201 987.011047,552.185425 985.249878,552.299255 
	C985.881714,554.500366 986.396912,556.294922 986.947937,558.214294 
	C983.188232,557.758057 979.777588,557.344116 976.020874,556.441895 
	C975.837158,551.794678 976.142761,547.635681 976.138672,543.476990 
	C976.113403,517.984619 976.018005,492.492279 975.946045,466.999908 
	C979.061523,466.370148 982.177002,465.740356 986.125366,464.942200 
	C986.889038,465.489075 988.580261,466.700104 990.645508,468.412048 
	C991.203308,476.919403 991.387085,484.925873 991.505737,493.310852 
	C995.071533,503.669434 998.862366,513.595459 1002.263367,523.653259 
	C1003.871887,528.410156 1006.143066,529.848633 1011.112183,526.449463 
	C1007.886902,516.046692 1004.605591,505.463165 1001.304565,494.472473 
	C1000.835022,488.191498 999.818359,482.289551 1000.107788,476.452393 
	C1000.356750,471.431610 1005.216125,466.939362 1008.860229,466.829620 
	C1012.542969,466.718719 1016.786438,470.937317 1017.842529,476.251892 
	C1018.536438,479.743896 1018.683777,483.344543 1019.087341,487.000000 
	C1021.061584,487.000000 1023.030762,487.000000 1025.000000,487.000000 
	C1025.000000,502.687561 1025.000000,518.375122 1024.583618,534.443970 
	C1021.248901,534.365417 1019.893616,535.559875 1019.651428,538.561401 
	C1019.466064,540.857910 1018.982239,543.201721 1018.189880,545.362732 
	C1016.627441,549.623596 1013.626160,552.188660 1008.836060,552.196777 
	C1004.210083,552.204529 1001.442261,549.554626 999.701294,545.653442 
	C998.894226,543.844971 998.545532,541.835449 997.941956,539.931946 
	C996.753479,536.183899 994.285461,534.663940 989.864624,535.596802 
	C989.864624,541.119751 989.864624,546.560364 989.864624,552.000977 
z"/>
<path fill="#053D4C" opacity="1.000000" stroke="none" 
	d="
M1000.946350,772.899292 
	C1002.441589,770.625122 1003.609680,768.022278 1005.497620,766.142456 
	C1009.959045,761.699890 1014.693909,757.520813 1019.472900,753.415344 
	C1020.791199,752.282776 1022.653870,751.783997 1024.633423,750.997253 
	C1025.000000,796.020874 1025.000000,841.041809 1025.000000,886.531311 
	C1022.357422,885.134827 1019.306091,883.649780 1017.150574,881.331604 
	C1011.246765,874.982239 1005.719910,868.282410 1000.355713,861.324768 
	C1004.548462,859.803223 1005.365662,857.419495 1004.152100,853.653198 
	C1001.381042,845.053711 1000.402832,836.200256 1000.956116,827.162842 
	C1001.065735,825.372620 1000.616211,823.546997 1000.414001,821.738892 
	C999.121521,810.182861 997.047852,798.692810 999.702515,786.989929 
	C1000.736084,782.433472 1000.567383,777.604248 1000.946350,772.899292 
z"/>
<path fill="#053D4C" opacity="1.000000" stroke="none" 
	d="
M1002.954102,146.980148 
	C1010.069092,140.337067 1017.184082,133.694000 1024.649536,127.025467 
	C1025.000000,171.687561 1025.000000,216.375122 1025.000000,261.531342 
	C1018.680847,256.274261 1012.361694,250.548553 1006.012451,244.017670 
	C1005.118652,232.721176 1004.288696,222.226959 1003.384094,211.739151 
	C1001.650330,191.639008 1003.997192,171.669189 1005.397888,151.678543 
	C1005.573059,149.178711 1006.026733,147.402405 1002.954102,146.980148 
z"/>
<path fill="#095566" opacity="1.000000" stroke="none" 
	d="
M228.003357,886.995117 
	C232.853409,891.414490 237.877899,895.658875 242.520645,900.286255 
	C256.247803,913.967773 262.997711,931.398132 267.880005,949.587219 
	C270.007172,957.512024 271.041168,965.791077 271.902100,973.979675 
	C272.972748,984.162354 272.924103,994.470642 274.179352,1004.623230 
	C274.999176,1011.254028 277.276611,1017.704651 278.950562,1024.617920 
	C276.629425,1025.000000 274.258881,1025.000000 271.444153,1025.000000 
	C270.218903,1021.477844 269.439270,1017.955322 268.656372,1014.433533 
	C266.437866,1004.453796 264.010468,994.515015 262.049225,984.484985 
	C259.355682,970.710022 257.612061,956.722900 254.343323,943.094849 
	C251.474564,931.134338 243.820435,921.403320 236.297073,911.901306 
	C231.562637,905.921753 226.311813,900.351074 221.563873,894.299438 
	C229.077591,893.868958 229.606735,893.267883 228.003357,886.995117 
z"/>
<path fill="#8B2DE4" opacity="1.000000" stroke="none" 
	d="
M1025.000000,486.531342 
	C1023.030762,487.000000 1021.061584,487.000000 1019.087341,487.000000 
	C1018.683777,483.344543 1018.536438,479.743896 1017.842529,476.251892 
	C1016.786438,470.937317 1012.542969,466.718719 1008.860229,466.829620 
	C1005.216125,466.939362 1000.356750,471.431610 1000.107788,476.452393 
	C999.818359,482.289551 1000.835022,488.191498 1000.877441,494.503265 
	C997.503662,494.271576 994.537292,493.601959 991.570923,492.932312 
	C991.387085,484.925873 991.203308,476.919403 990.987061,468.455750 
	C991.665710,465.096802 992.239258,462.152740 993.116638,459.302124 
	C994.946777,453.356232 999.098633,450.450287 1005.300049,450.057434 
	C1012.202637,449.620148 1019.044067,449.082336 1024.652466,454.958893 
	C1025.000000,465.354218 1025.000000,475.708466 1025.000000,486.531342 
z"/>
<path fill="#8B2DE4" opacity="1.000000" stroke="none" 
	d="
M989.920532,552.330933 
	C989.864624,546.560364 989.864624,541.119751 989.864624,535.596802 
	C994.285461,534.663940 996.753479,536.183899 997.941956,539.931946 
	C998.545532,541.835449 998.894226,543.844971 999.701294,545.653442 
	C1001.442261,549.554626 1004.210083,552.204529 1008.836060,552.196777 
	C1013.626160,552.188660 1016.627441,549.623596 1018.189880,545.362732 
	C1018.982239,543.201721 1019.466064,540.857910 1019.651428,538.561401 
	C1019.893616,535.559875 1021.248901,534.365417 1024.583618,534.912598 
	C1025.000000,544.354248 1025.000000,553.708435 1025.000000,563.531372 
	C1015.125610,574.285034 999.396423,572.934204 992.550110,560.760498 
	C991.865417,559.828064 991.513489,559.376709 991.161499,558.925415 
	C990.766479,556.837219 990.371460,554.749023 989.920532,552.330933 
z"/>
<path fill="#3C46FF" opacity="1.000000" stroke="none" 
	d="
M1008.993774,1009.150757 
	C1014.017883,1009.099304 1019.042053,1009.047852 1024.533081,1008.998230 
	C1025.000000,1014.258423 1025.000000,1019.516846 1025.000000,1025.000000 
	C1019.982300,1025.000000 1014.962341,1025.000000 1009.471191,1024.533447 
	C1008.997925,1019.094727 1008.995850,1014.122742 1008.993774,1009.150757 
z"/>
<path fill="#FF6E3C" opacity="1.000000" stroke="none" 
	d="
M1008.538269,1009.085938 
	C1008.995850,1014.122742 1008.997925,1019.094727 1009.000000,1024.533447 
	C1003.977905,1025.000000 998.955811,1025.000000 993.466858,1024.533691 
	C993.003479,1019.097168 993.007019,1014.126953 993.424255,1009.092041 
	C995.223694,1008.962463 996.609436,1008.897522 997.995117,1008.832520 
	C1001.357666,1008.895386 1004.720215,1008.958313 1008.538269,1009.085938 
z"/>
<path fill="#51DA4C" opacity="1.000000" stroke="none" 
	d="
M993.010498,1009.156738 
	C993.007019,1014.126953 993.003479,1019.097168 993.000000,1024.533691 
	C987.977905,1025.000000 982.955811,1025.000000 977.466858,1024.533447 
	C976.996399,1019.096008 976.992859,1014.125183 976.989258,1009.154419 
	C981.693115,1009.086304 986.396912,1009.018188 991.810913,1008.971252 
	C992.684143,1009.047180 992.847290,1009.101990 993.010498,1009.156738 
z"/>
<path fill="#42FFFF" opacity="1.000000" stroke="none" 
	d="
M976.525146,1009.092590 
	C976.992859,1014.125183 976.996399,1019.096008 977.000000,1024.533447 
	C971.977905,1025.000000 966.955811,1025.000000 961.466858,1024.533447 
	C960.999512,1019.100037 960.998962,1014.133118 960.998474,1009.166138 
	C966.019348,1009.121033 971.040161,1009.075928 976.525146,1009.092590 
z"/>
<path fill="#FFFF66" opacity="1.000000" stroke="none" 
	d="
M960.534912,1009.095032 
	C960.998962,1014.133118 960.999512,1019.100037 961.000000,1024.533447 
	C955.977905,1025.000000 950.955811,1025.000000 945.466858,1025.000000 
	C945.000000,1019.867004 945.000000,1014.734070 945.000000,1009.023926 
	C950.216187,1009.023926 955.143799,1009.023926 960.534912,1009.095032 
z"/>
<path fill="#090A08" opacity="1.000000" stroke="none" 
	d="
M462.806183,591.269531 
	C449.377625,591.269836 436.424530,591.269836 423.129211,591.269836 
	C423.129211,538.068420 423.129211,485.365234 423.129211,432.264313 
	C438.861084,432.264313 454.472198,431.845764 470.044220,432.444702 
	C477.586151,432.734741 482.522797,440.183990 482.537689,449.110138 
	C482.589294,480.076477 482.570862,511.042877 482.595093,542.009277 
	C482.602631,551.665222 482.678925,561.321167 482.679871,570.977112 
	C482.680054,572.800842 482.689056,574.668823 482.326324,576.441162 
	C479.932068,588.139832 475.872955,591.260803 462.806183,591.269531 
M442.742676,480.499878 
	C442.742676,510.718781 442.742676,540.937683 442.742676,571.179749 
	C449.858856,571.179749 456.423187,571.179749 463.434204,571.179749 
	C463.434204,564.427734 463.444397,557.973328 463.432404,551.518982 
	C463.374664,520.397949 463.321075,489.276886 463.240417,458.155914 
	C463.225372,452.353607 462.345947,451.425018 456.668427,451.294922 
	C452.213226,451.192841 447.753815,451.274384 442.741089,451.274384 
	C442.741089,460.963409 442.741089,470.231628 442.742676,480.499878 
z"/>
<path fill="#080B07" opacity="1.000000" stroke="none" 
	d="
M832.604065,591.270020 
	C818.515991,591.270447 804.882324,591.270447 790.854370,591.270447 
	C790.854370,538.184998 790.854370,485.371521 790.854370,432.217896 
	C805.513550,432.217896 819.971497,431.922272 834.408569,432.341492 
	C841.727966,432.553986 847.034668,438.109711 848.192749,445.338867 
	C848.611206,447.950623 848.749329,450.632202 848.750854,453.282074 
	C848.773315,492.575043 848.912476,531.869568 848.538757,571.159119 
	C848.491333,576.145813 846.222595,581.350647 844.031738,586.006836 
	C842.049011,590.221008 837.833618,591.825012 832.604065,591.270020 
M830.513062,498.500244 
	C830.528198,485.351013 830.538391,472.201752 830.561890,459.052521 
	C830.568237,455.509613 830.062866,451.867950 825.853882,451.444458 
	C820.822937,450.938232 815.702026,451.325012 810.661987,451.325012 
	C810.661987,491.639404 810.661987,531.304382 810.661987,571.016235 
	C817.308044,571.016235 823.567688,571.016235 830.507202,571.016235 
	C830.507202,547.010010 830.507202,523.255127 830.513062,498.500244 
z"/>
<path fill="#070805" opacity="1.000000" stroke="none" 
	d="
M574.409546,456.088562 
	C574.494812,494.550415 574.859619,532.529358 574.338928,570.496155 
	C574.255737,576.557007 570.544800,582.729736 567.760620,588.487854 
	C566.982849,590.096313 563.541687,591.125000 561.286438,591.190918 
	C550.301575,591.511719 539.301941,591.552551 528.314270,591.341553 
	C526.333557,591.303589 523.948975,590.063538 522.496338,588.625427 
	C516.299072,582.490479 513.904846,575.196655 514.031067,566.167725 
	C514.564087,528.032166 514.396057,489.886932 514.495483,451.745239 
	C514.529419,438.718536 521.508240,431.793671 534.610229,431.759979 
	C540.606323,431.744537 546.602661,431.741791 552.598755,431.760406 
	C566.730164,431.804321 575.356567,438.210876 574.335205,453.104797 
	C574.278503,453.931793 574.372314,454.769104 574.409546,456.088562 
M555.226440,479.500092 
	C555.226440,470.398010 555.226440,461.295929 555.226440,452.035767 
	C547.674194,452.035767 540.616638,452.035767 533.652344,452.035767 
	C533.429382,452.594727 533.210327,452.887238 533.210510,453.179596 
	C533.223999,482.135468 533.249817,511.091309 533.285767,540.047180 
	C533.296692,548.867798 533.134949,557.697449 533.523987,566.502075 
	C533.609436,568.438171 535.542114,571.771057 536.895752,571.915527 
	C542.612305,572.525574 548.431580,572.173828 555.226929,572.173828 
	C555.226929,541.302612 555.226929,510.901367 555.226440,479.500092 
z"/>
<path fill="#070805" opacity="1.000000" stroke="none" 
	d="
M625.785645,553.044006 
	C625.788879,557.868164 625.703430,562.203247 625.822266,566.532715 
	C625.927490,570.367310 627.286377,572.741211 631.909241,572.320923 
	C636.493591,571.904114 641.145508,572.229736 646.304932,572.229736 
	C646.304932,557.282410 646.393616,542.832703 646.140381,528.388977 
	C646.119629,527.204346 643.893433,525.256592 642.483276,525.043396 
	C637.570374,524.300476 632.564270,524.180847 627.596008,523.794250 
	C621.028564,523.283142 615.496399,520.488464 610.750854,516.028748 
	C607.711609,513.172546 606.105225,509.877716 606.146912,505.454773 
	C606.328979,486.126190 606.196228,466.794861 606.229126,447.464600 
	C606.247803,436.491760 610.665588,431.967957 621.655396,431.789459 
	C629.485352,431.662292 637.326050,431.560364 645.149902,431.815216 
	C662.136963,432.368561 663.534424,436.352386 664.918884,448.985077 
	C665.893738,457.880524 665.269043,466.952423 665.327087,475.945740 
	C665.334412,477.080505 665.150085,478.216522 665.036926,479.560791 
	C658.734253,479.560791 652.634888,479.560791 645.923218,479.560791 
	C645.923218,470.302399 645.923218,461.087921 645.923218,451.575867 
	C639.074280,451.575867 632.826416,451.575867 625.797180,451.575867 
	C625.797180,453.447083 625.796997,455.358765 625.797241,457.270447 
	C625.798706,470.601715 625.920776,483.934692 625.728821,497.263184 
	C625.670837,501.289490 626.439270,503.328827 631.085999,503.422150 
	C637.037781,503.541718 642.973022,504.546722 648.912781,505.194214 
	C660.319092,506.437622 664.953552,511.049286 665.157288,522.604614 
	C665.456848,539.596863 665.489502,556.603455 665.095764,573.591431 
	C665.000305,577.708374 663.205811,581.967224 661.429688,585.808105 
	C659.933350,589.044189 657.039612,590.837158 652.964722,590.865479 
	C642.659546,590.937073 632.350586,591.295288 622.055603,591.794250 
	C610.666565,592.346313 606.017090,583.893188 606.020630,575.115051 
	C606.025146,564.143433 606.021729,553.171814 606.021729,541.632507 
	C611.929688,541.632507 617.564575,541.503540 623.181396,541.763245 
	C624.085144,541.804993 625.501648,543.496582 625.651855,544.569641 
	C626.018066,547.185547 625.780334,549.886047 625.785645,553.044006 
z"/>
<path fill="#070805" opacity="1.000000" stroke="none" 
	d="
M346.775574,581.976929 
	C346.775879,531.860168 346.775879,482.241516 346.775879,432.219604 
	C359.318420,432.219604 371.368774,432.219604 383.839996,432.219604 
	C383.839996,438.158752 383.839996,444.193207 383.839996,450.602692 
	C377.372162,450.602692 370.931458,450.602692 364.125916,450.602692 
	C364.125916,468.680969 364.125916,486.396545 364.125916,504.277618 
	C367.402130,504.277618 370.664093,504.277618 374.501404,504.277618 
	C374.501404,510.194580 374.501404,516.034851 374.501404,522.327087 
	C370.870575,522.327087 367.628113,522.327087 364.064911,522.327087 
	C364.064911,538.525574 364.064911,554.279419 364.064911,570.650635 
	C370.544830,570.650635 377.094299,570.650635 383.907654,570.650635 
	C383.907654,577.654053 383.907654,584.042297 383.907654,590.735352 
	C371.542267,590.735352 359.454865,590.735352 346.775299,590.735352 
	C346.775299,588.015015 346.775299,585.245056 346.775574,581.976929 
z"/>
<path fill="#8A2CE8" opacity="1.000000" stroke="none" 
	d="
M975.779297,466.677185 
	C976.018005,492.492279 976.113403,517.984619 976.138672,543.476990 
	C976.142761,547.635681 975.837158,551.794678 975.608398,556.409363 
	C970.141968,570.399902 956.941833,572.361633 947.216858,567.978882 
	C939.821777,564.646118 937.277466,558.630066 936.250549,551.422913 
	C935.948120,549.300415 936.193848,547.099854 936.396851,544.137817 
	C936.668884,541.515625 936.782593,539.690796 936.788391,537.865601 
	C936.865173,513.909912 936.926697,489.954193 936.992065,465.998505 
	C938.542969,462.366882 939.255493,457.945343 941.797485,455.247559 
	C950.416748,446.099915 967.787598,449.148560 973.264771,460.348206 
	C974.205933,462.272766 974.837830,464.348541 975.779297,466.677185 
M962.019165,470.366852 
	C955.366211,465.507446 948.731323,468.199524 947.412598,476.313538 
	C947.280457,477.126495 947.331482,477.972443 947.330627,478.803101 
	C947.309998,499.415924 947.272705,520.028809 947.314392,540.641541 
	C947.318054,542.435791 947.241272,544.767090 948.257446,545.912964 
	C950.516296,548.460205 953.198853,551.719971 956.162598,552.277893 
	C959.853516,552.972656 963.481689,550.399353 964.886963,546.300232 
	C965.468323,544.604797 965.747620,542.723877 965.754089,540.925903 
	C965.825806,520.978088 965.968750,501.027802 965.683105,481.084045 
	C965.634338,477.680420 963.659058,474.304413 962.019165,470.366852 
z"/>
<path fill="#8B2DE4" opacity="1.000000" stroke="none" 
	d="
M690.819153,487.000000 
	C690.819214,475.232635 690.819214,463.965271 690.819214,452.443665 
	C700.829224,452.443665 710.220703,452.443665 719.899902,452.443665 
	C719.899902,456.663391 719.899902,460.572083 719.899902,464.979126 
	C714.652649,464.979126 709.589172,464.979126 704.329834,464.979126 
	C704.329834,478.517975 704.329834,491.558411 704.329834,505.161194 
	C710.298462,505.161194 715.876831,505.161194 721.797729,505.161194 
	C721.797729,509.617676 721.797729,513.516296 721.797729,518.125916 
	C715.999390,518.125916 710.287781,518.125916 704.354675,518.125916 
	C704.354675,531.917542 704.354675,545.003540 704.354675,558.631348 
	C709.699707,558.631348 714.927734,558.631348 720.555786,558.631348 
	C720.555786,561.881592 720.555786,564.599976 720.555786,568.050049 
	C710.884766,568.050049 701.193420,568.050049 690.819092,568.050049 
	C690.819092,541.322632 690.819092,514.411316 690.819153,487.000000 
z"/>
<path fill="#8A2CE8" opacity="1.000000" stroke="none" 
	d="
M882.401855,504.009766 
	C882.401855,486.293732 882.401855,468.577698 882.401855,450.475739 
	C890.733215,450.475739 898.881042,449.768494 906.843018,450.681641 
	C914.287170,451.535309 917.123596,458.262939 920.081116,465.028687 
	C919.541260,469.882965 918.322937,474.042877 918.252686,478.222107 
	C917.947571,496.371613 917.913696,514.526855 917.940918,532.679749 
	C917.946106,536.130615 918.674561,539.580505 919.069275,543.030823 
	C919.069275,543.030823 918.816040,542.977722 918.334961,542.958984 
	C914.685791,542.298218 911.517639,541.656128 908.260376,540.551758 
	C908.060486,519.608154 907.950439,499.126709 907.837402,478.645264 
	C907.830078,477.313263 907.912170,475.968323 907.759705,474.651764 
	C907.214966,469.949188 903.197937,467.023743 898.177429,467.227997 
	C892.585327,467.455475 894.312012,471.557190 894.222168,474.516602 
	C893.903931,484.994263 893.758728,495.477142 893.162964,506.007324 
	C889.712891,509.657532 887.077576,510.176483 884.908325,505.158081 
	C884.637390,504.531281 883.264282,504.380890 882.401855,504.009766 
z"/>
<path fill="#E2E4FA" opacity="1.000000" stroke="none" 
	d="
M289.489899,568.000488 
	C284.027863,567.677124 278.565826,567.353821 272.622192,566.554138 
	C271.979492,549.042236 271.818420,532.006653 271.732361,514.509766 
	C271.678009,500.011017 271.548706,485.973541 271.552490,471.615356 
	C271.611725,469.908417 271.537872,468.522156 271.464050,467.135895 
	C273.575165,465.916504 275.686279,464.697144 278.791504,462.903595 
	C281.040192,466.008026 283.410797,469.355713 285.875336,472.632812 
	C286.527954,473.500610 287.469757,474.150940 288.714111,475.414612 
	C289.205170,486.216522 289.277832,496.504791 289.313080,506.793213 
	C289.382935,527.195618 289.432159,547.598083 289.489899,568.000488 
z"/>
<path fill="#8A2CE8" opacity="1.000000" stroke="none" 
	d="
M289.676636,568.390808 
	C289.432159,547.598083 289.382935,527.195618 289.313080,506.793213 
	C289.277832,496.504791 289.205170,486.216522 289.072296,475.464844 
	C289.102692,467.559479 289.210205,460.117432 289.674866,452.796936 
	C290.977386,453.601379 291.868561,454.777527 292.876831,454.888306 
	C300.249939,455.698334 307.646515,456.294617 315.035706,456.958374 
	C315.035706,459.430756 315.035706,461.903198 315.035706,464.841553 
	C310.415405,464.841553 306.022095,464.841553 301.071136,464.841553 
	C301.071136,471.392548 301.056549,477.487457 301.076080,483.582245 
	C301.089966,487.912964 301.160736,492.243439 301.186829,496.574127 
	C301.227203,503.281097 301.220184,503.281128 308.595947,504.234680 
	C311.172913,509.473572 309.282837,513.585449 306.603271,517.715576 
	C305.428711,517.710876 304.644196,517.625488 303.691467,517.410583 
	C303.257294,517.151672 302.978394,517.110840 302.347839,517.240051 
	C301.681976,518.551758 301.354797,519.781860 301.027618,521.012024 
	C301.087982,531.821777 301.246735,542.632385 301.148254,553.440674 
	C301.119019,556.653320 302.174774,557.984253 305.417328,557.903625 
	C308.370728,557.830261 311.333435,558.130981 314.722168,558.286560 
	C314.722168,562.021240 314.722168,565.580505 314.722168,570.260010 
	C306.423523,569.766357 298.143433,569.273743 289.676636,568.390808 
z"/>
<path fill="#E0DEF8" opacity="1.000000" stroke="none" 
	d="
M919.457886,543.024536 
	C918.674561,539.580505 917.946106,536.130615 917.940918,532.679749 
	C917.913696,514.526855 917.947571,496.371613 918.252686,478.222107 
	C918.322937,474.042877 919.541260,469.882965 920.244812,465.352966 
	C925.723694,463.052216 931.086243,462.743835 936.608154,465.998291 
	C936.926697,489.954193 936.865173,513.909912 936.788391,537.865601 
	C936.782593,539.690796 936.668884,541.515625 936.384766,543.687439 
	C932.873718,544.268311 929.573364,544.765808 926.296204,544.643188 
	C924.129089,544.562073 921.995300,543.590942 919.457886,543.024536 
z"/>
<path fill="#8225E5" opacity="1.000000" stroke="none" 
	d="
M908.349487,541.013977 
	C911.517639,541.656128 914.685791,542.298218 918.211060,542.921997 
	C919.633118,551.263916 920.656860,559.849792 912.674072,565.590515 
	C903.760559,572.000488 893.885254,571.286987 884.182861,567.520447 
	C882.915466,567.028503 881.965881,564.054138 881.962036,562.227295 
	C881.921753,543.128845 882.104614,524.029968 882.313843,504.470459 
	C883.264282,504.380890 884.637390,504.531281 884.908325,505.158081 
	C887.077576,510.176483 889.712891,509.657532 893.194580,506.445068 
	C893.572754,508.867126 893.534363,510.900726 893.069946,512.947449 
	C891.459778,513.408630 890.275452,513.856628 889.091187,514.304688 
	C889.194580,514.741150 889.297974,515.177612 889.401367,515.614136 
	C890.784058,515.751526 892.166687,515.888855 893.636963,516.484619 
	C893.722717,526.856995 893.595154,536.774231 893.839966,546.682190 
	C893.881775,548.376953 895.171082,551.116760 896.468689,551.527588 
	C904.114807,553.948730 907.901794,550.991028 908.156189,542.982605 
	C908.177124,542.325012 908.283020,541.670105 908.349487,541.013977 
z"/>
<path fill="#9332EE" opacity="1.000000" stroke="none" 
	d="
M271.308411,466.823608 
	C271.537872,468.522156 271.611725,469.908417 271.136230,471.635071 
	C268.353333,472.647339 266.119781,473.319183 263.793701,473.621704 
	C262.221588,469.464996 261.335938,465.273651 259.106964,461.995819 
	C256.516571,458.186554 252.340561,459.062408 250.791458,463.401855 
	C249.862030,466.005463 249.385071,468.862366 249.233582,471.634369 
	C248.809433,479.395752 248.660141,487.172150 248.031158,494.995514 
	C244.425400,497.155060 241.691116,500.060486 243.343765,503.912750 
	C244.849777,507.423218 244.064896,512.524780 249.152252,514.530029 
	C249.159760,533.008240 249.142166,551.022522 249.124557,569.036804 
	C246.342087,569.036804 243.559601,569.036804 240.175781,569.036804 
	C240.175781,566.791626 240.175720,565.004822 240.175797,563.218018 
	C240.176834,534.560425 240.108963,505.902496 240.224213,477.245331 
	C240.255615,469.438202 241.740677,462.049133 248.170883,456.521332 
	C255.231674,450.451508 260.822174,450.499451 266.907501,457.665741 
	C268.955170,460.077118 269.772919,463.532867 271.308411,466.823608 
z"/>
<path fill="#8737EB" opacity="1.000000" stroke="none" 
	d="
M208.520416,468.991394 
	C208.576569,480.458588 208.674118,491.925751 208.679703,503.392975 
	C208.689362,523.185730 208.641693,542.978455 208.618622,562.771179 
	C208.616531,564.567505 208.618362,566.363831 208.618362,568.504761 
	C205.057983,568.504761 201.993759,568.504761 198.224014,568.504761 
	C198.224014,535.959106 198.224014,503.434998 198.663467,470.438690 
	C202.242081,469.641449 205.381256,469.316406 208.520416,468.991394 
z"/>
<path fill="#D9DAF2" opacity="1.000000" stroke="none" 
	d="
M249.582443,569.026733 
	C249.142166,551.022522 249.159760,533.008240 249.597961,514.424133 
	C253.263550,513.813171 256.526520,513.560730 259.744598,513.835144 
	C261.027344,513.944580 262.210846,515.218384 263.350677,516.424438 
	C263.282715,534.199280 263.303558,551.511719 263.324432,568.824219 
	C258.896393,568.888367 254.468369,568.952576 249.582443,569.026733 
z"/>
<path fill="#8B2DE4" opacity="1.000000" stroke="none" 
	d="
M208.637726,468.580719 
	C205.381256,469.316406 202.242081,469.641449 198.756775,469.978821 
	C198.555344,466.871094 197.223694,465.532410 193.972687,465.830200 
	C191.202942,466.083893 188.391525,465.882599 185.295044,465.882599 
	C185.295044,460.801575 185.295044,456.278351 185.295044,451.216797 
	C198.172791,451.216797 210.608322,451.181152 223.042557,451.292542 
	C223.924850,451.300446 225.512238,452.340363 225.556274,452.983612 
	C225.805573,456.625336 225.843506,460.305359 225.548370,463.939453 
	C225.492340,464.629303 223.651337,465.612915 222.573532,465.698273 
	C219.429108,465.947266 216.225876,465.566864 213.103226,465.929199 
	C211.587555,466.105042 210.200378,467.388184 208.637726,468.580719 
z"/>
<path fill="#9332EE" opacity="1.000000" stroke="none" 
	d="
M263.743835,568.823486 
	C263.303558,551.511719 263.282715,534.199280 263.733490,516.434265 
	C266.689209,515.644836 269.173279,515.307983 271.657349,514.971069 
	C271.818420,532.006653 271.979492,549.042236 272.238220,566.537720 
	C269.611694,567.605957 266.887451,568.214294 263.743835,568.823486 
z"/>
<path fill="#161816" opacity="1.000000" stroke="none" 
	d="
M714.635498,426.234863 
	C715.925537,426.301636 717.215515,426.368408 718.772583,426.448975 
	C718.772583,433.092224 718.772583,439.472809 718.772583,446.074890 
	C712.307739,446.074890 706.223877,446.074890 699.758545,446.074890 
	C699.758545,439.658997 699.758545,433.308899 699.758545,426.204254 
	C702.433411,426.204254 705.174744,426.204254 708.541870,426.521606 
	C709.268127,427.983185 709.470886,429.129211 709.450378,430.271240 
	C709.384094,433.948517 711.127075,434.811066 713.916443,433.937134 
	C714.183044,431.081146 714.409241,428.657990 714.635498,426.234863 
z"/>
<path fill="#161816" opacity="1.000000" stroke="none" 
	d="
M699.151367,574.015015 
	C699.819397,572.865295 700.444885,570.749390 701.162170,570.717834 
	C707.215759,570.451416 713.286194,570.565857 719.470581,570.565857 
	C719.470581,577.672241 719.470581,584.196350 719.470581,591.082581 
	C717.091003,591.082581 714.978455,591.082581 712.426147,590.523926 
	C711.992249,588.970276 712.001160,587.975220 712.003296,586.980164 
	C712.025574,576.682983 712.023865,576.690308 702.015320,574.810486 
	C701.045105,574.628235 700.105286,574.284058 699.151367,574.015015 
z"/>
<path fill="#070805" opacity="1.000000" stroke="none" 
	d="
M699.080139,574.476990 
	C700.105286,574.284058 701.045105,574.628235 702.015320,574.810486 
	C712.023865,576.690308 712.025574,576.682983 712.003296,586.980164 
	C712.001160,587.975220 711.992249,588.970276 711.987549,590.421997 
	C707.929993,590.878723 703.871338,590.878723 699.008911,590.878723 
	C699.008911,585.316040 699.008911,580.127502 699.080139,574.476990 
z"/>
<path fill="#732FC2" opacity="1.000000" stroke="none" 
	d="
M315.100616,456.516632 
	C307.646515,456.294617 300.249939,455.698334 292.876831,454.888306 
	C291.868561,454.777527 290.977386,453.601379 289.978577,452.524414 
	C297.342712,452.041382 304.763306,452.049164 312.176575,451.820831 
	C315.660675,451.713470 315.211975,453.931641 315.100616,456.516632 
z"/>
<path fill="#9332EE" opacity="1.000000" stroke="none" 
	d="
M306.993378,517.634949 
	C309.282837,513.585449 311.172913,509.473572 308.995667,504.314575 
	C310.526947,503.900970 312.073883,503.900970 313.317078,503.900970 
	C314.097229,508.944763 314.786011,513.397888 314.815735,518.044434 
	C311.768921,518.036926 309.381134,517.835938 306.993378,517.634949 
z"/>
<path fill="#D9DAF2" opacity="1.000000" stroke="none" 
	d="
M306.603271,517.715576 
	C309.381134,517.835938 311.768921,518.036926 314.596558,518.339844 
	C315.611786,522.631470 313.499084,523.595642 309.857727,522.794556 
	C307.185333,522.206604 304.500305,521.676270 301.424255,521.066162 
	C301.354797,519.781860 301.681976,518.551758 302.510101,517.392212 
	C303.011017,517.462769 303.425201,517.613525 303.425201,517.613525 
	C303.425201,517.613525 303.859711,517.540039 303.859711,517.540039 
	C304.644196,517.625488 305.428711,517.710876 306.603271,517.715576 
z"/>
<path fill="#D9DAF2" opacity="1.000000" stroke="none" 
	d="
M714.149536,426.165710 
	C714.409241,428.657990 714.183044,431.081146 713.916443,433.937134 
	C711.127075,434.811066 709.384094,433.948517 709.450378,430.271240 
	C709.470886,429.129211 709.268127,427.983185 708.975342,426.463318 
	C710.409973,426.090637 712.036804,426.093597 714.149536,426.165710 
z"/>
<path fill="#E3E0F8" opacity="1.000000" stroke="none" 
	d="
M990.922729,559.113525 
	C991.513489,559.376709 991.865417,559.828064 992.270996,560.582153 
	C991.777710,560.357178 991.230835,559.829346 990.922729,559.113525 
z"/>
<path fill="#095161" opacity="1.000000" stroke="none" 
	d="
M227.850555,886.700134 
	C229.606735,893.267883 229.077591,893.868958 221.410599,894.004028 
	C220.482361,893.440125 219.978622,892.874023 219.119843,891.937500 
	C218.564224,891.306824 218.310593,891.117798 218.003906,890.999939 
	C212.654678,885.154846 206.627197,879.783508 202.129349,873.343811 
	C196.613068,865.446045 192.306488,856.693420 187.604858,848.239197 
	C182.531921,839.117371 181.856461,828.819397 181.290100,818.856323 
	C180.599869,806.714172 183.378143,794.941956 188.087677,783.502014 
	C195.318741,765.937012 207.884155,752.820129 222.415787,741.610901 
	C232.968079,733.471252 240.384338,723.234070 247.409729,712.296387 
	C259.336212,693.728333 263.176910,672.797546 266.026703,651.507629 
	C266.223724,650.035767 266.608643,648.589050 266.901550,646.749756 
	C269.326874,646.314758 271.756836,646.260681 274.632111,646.315674 
	C273.953979,662.514648 270.962311,678.249084 265.718750,693.503601 
	C263.251831,700.680359 260.822388,707.939636 257.518127,714.745056 
	C249.138687,732.003357 235.696335,745.060120 221.032623,756.975769 
	C207.567795,767.917114 196.566422,781.223999 192.696869,798.038635 
	C190.174286,809.000183 190.995987,821.227661 192.672562,832.539246 
	C194.996048,848.215515 202.905685,861.705261 214.374115,872.906189 
	C218.896286,877.322937 223.261230,881.900696 227.850555,886.700134 
z"/>
<path fill="#095161" opacity="1.000000" stroke="none" 
	d="
M1000.606201,646.198242 
	C998.776428,658.799744 996.797974,671.373230 994.130310,683.798706 
	C991.731812,694.970947 988.468262,705.881531 982.225464,715.743225 
	C975.214539,726.818420 966.163757,735.931641 956.332520,744.397583 
	C955.074646,745.480713 953.838867,746.589417 952.296387,747.450562 
	C952.881836,745.418579 953.650696,743.554749 954.675842,741.844482 
	C955.798218,739.971924 957.391724,738.211182 954.028320,737.010681 
	C963.635925,728.508118 972.412659,719.199585 977.325989,707.201904 
	C981.111450,697.958313 984.367310,688.388000 986.683716,678.682556 
	C989.163757,668.291870 990.267639,657.572754 991.957642,646.591187 
	C994.681274,646.158875 997.419373,646.132324 1000.606201,646.198242 
z"/>
<path fill="#09687C" opacity="1.000000" stroke="none" 
	d="
M879.554932,646.013916 
	C877.701660,649.441956 874.981018,648.389038 872.108643,646.463745 
	C874.375549,646.052368 876.744995,646.002991 879.554932,646.013916 
z"/>
<path fill="#09687C" opacity="1.000000" stroke="none" 
	d="
M885.624695,646.016663 
	C885.039978,646.288635 884.083557,646.499756 883.065552,646.394775 
	C883.753662,646.037781 884.503296,645.996826 885.624695,646.016663 
z"/>
<path fill="#09687C" opacity="1.000000" stroke="none" 
	d="
M307.416687,378.578735 
	C307.072296,377.862976 307.043213,377.244507 307.023865,376.313599 
	C307.679871,376.616974 308.326111,377.232819 308.993134,378.143860 
	C308.586639,378.518036 308.159302,378.597046 307.416687,378.578735 
z"/>
<path fill="#095566" opacity="1.000000" stroke="none" 
	d="
M218.115814,891.213501 
	C218.310593,891.117798 218.564224,891.306824 218.882019,891.775879 
	C218.683533,891.879761 218.426361,891.693909 218.115814,891.213501 
z"/>
<path fill="#0A4D5D" opacity="1.000000" stroke="none" 
	d="
M953.728882,737.161255 
	C957.391724,738.211182 955.798218,739.971924 954.675842,741.844482 
	C953.650696,743.554749 952.881836,745.418579 951.997559,747.598816 
	C939.851013,758.168030 928.429932,769.322693 922.233459,784.016296 
	C911.070251,810.487000 914.480347,836.441467 929.569519,860.383362 
	C935.217834,869.345520 943.638977,876.571045 950.865479,884.525146 
	C963.221130,898.124634 975.802307,911.348999 983.954102,928.345581 
	C991.971558,945.062073 996.716431,962.502197 998.681152,980.661011 
	C999.652222,989.636108 998.298462,998.862854 997.995850,1008.404175 
	C996.609436,1008.897522 995.223694,1008.962463 993.424255,1009.092041 
	C992.847290,1009.101990 992.684143,1009.047180 992.275635,1008.912415 
	C991.291748,987.450623 991.053101,966.057983 984.144348,945.381592 
	C979.600281,931.782104 973.058655,919.406494 963.329773,908.979065 
	C955.883057,900.997559 947.275330,894.100159 939.816772,886.128662 
	C927.331726,872.784912 915.152283,859.051453 911.024536,840.426392 
	C908.506958,829.066711 907.691772,817.659180 908.780029,805.911499 
	C910.012329,792.609375 914.021423,780.762512 921.564026,769.785583 
	C930.313416,757.052307 941.644348,746.992371 953.728882,737.161255 
z"/>
<path fill="#034654" opacity="1.000000" stroke="none" 
	d="
M281.953461,134.946320 
	C283.379486,132.554291 284.805511,130.162247 286.716248,126.957161 
	C295.085602,138.745667 303.510315,149.883560 311.130402,161.547104 
	C318.984741,173.569153 322.474915,187.105316 320.819977,201.440125 
	C320.190979,206.888184 318.309906,212.540894 315.626007,217.330765 
	C309.802155,227.724426 303.111206,237.633484 296.739227,247.718216 
	C293.642731,252.619019 290.466248,257.469330 287.041840,262.783386 
	C285.743561,260.691711 284.498779,258.686279 283.392456,256.060760 
	C283.688477,253.801727 284.028717,252.156494 283.972473,250.524887 
	C283.709747,242.900162 283.102905,235.280823 283.050385,227.656570 
	C282.913849,207.838943 282.999268,188.019760 283.014587,168.201202 
	C283.015503,167.042587 283.228363,165.885452 283.260681,164.725357 
	C283.501007,156.097458 283.807251,147.469421 283.853241,138.840164 
	C283.860138,137.545624 282.617889,136.244431 281.953461,134.946320 
z"/>
<path fill="#073847" opacity="1.000000" stroke="none" 
	d="
M281.698456,135.161209 
	C282.617889,136.244431 283.860138,137.545624 283.853241,138.840164 
	C283.807251,147.469421 283.501007,156.097458 283.260681,164.725357 
	C283.228363,165.885452 283.015503,167.042587 283.014587,168.201202 
	C282.999268,188.019760 282.913849,207.838943 283.050385,227.656570 
	C283.102905,235.280823 283.709747,242.900162 283.972473,250.524887 
	C284.028717,252.156494 283.688477,253.801727 283.241119,255.752563 
	C275.475037,245.334412 267.382721,234.972794 260.686310,223.776276 
	C253.189453,211.241318 249.936554,197.843079 253.922119,182.756332 
	C257.409515,169.555420 265.231049,159.334686 272.745117,148.655731 
	C275.788513,144.330460 278.552399,139.808548 281.698456,135.161209 
z"/>
<path fill="#034654" opacity="1.000000" stroke="none" 
	d="
M282.981293,755.941589 
	C283.661652,754.802673 284.305237,753.639099 285.042236,752.538086 
	C285.302460,752.149353 285.790985,751.913391 286.341217,751.475586 
	C294.113739,756.714844 298.540222,764.751465 303.531494,772.230225 
	C306.843048,777.192139 309.051239,782.924316 312.582458,787.698364 
	C318.917542,796.263062 321.486816,806.230042 321.555908,816.203857 
	C321.612671,824.403076 319.623047,833.249634 316.167328,840.710083 
	C308.647095,856.945435 298.757355,871.916138 286.554199,886.204285 
	C285.350525,884.164551 284.311707,882.404114 283.410095,880.030151 
	C283.698608,873.361938 283.964539,867.307556 283.980225,861.252441 
	C284.033203,840.816345 284.027740,820.379944 283.977051,799.943848 
	C283.961609,793.722900 283.727692,787.502441 283.594147,781.281799 
	C283.516510,777.663757 283.448303,774.045471 283.359833,770.427734 
	C283.241791,765.598816 283.108215,760.770264 282.981293,755.941589 
z"/>
<path fill="#073847" opacity="1.000000" stroke="none" 
	d="
M282.690765,756.114990 
	C283.108215,760.770264 283.241791,765.598816 283.359833,770.427734 
	C283.448303,774.045471 283.516510,777.663757 283.594147,781.281799 
	C283.727692,787.502441 283.961609,793.722900 283.977051,799.943848 
	C284.027740,820.379944 284.033203,840.816345 283.980225,861.252441 
	C283.964539,867.307556 283.698608,873.361938 283.268188,879.715576 
	C274.969788,868.460693 265.970062,857.450500 259.186523,845.211853 
	C251.222092,830.842590 249.352112,815.164368 255.863266,799.262085 
	C262.335236,783.455444 272.761719,770.122437 282.690765,756.114990 
z"/>
<path fill="#073847" opacity="1.000000" stroke="none" 
	d="
M1002.661987,147.146286 
	C1006.026733,147.402405 1005.573059,149.178711 1005.397888,151.678543 
	C1003.997192,171.669189 1001.650330,191.639008 1003.384094,211.739151 
	C1004.288696,222.226959 1005.118652,232.721176 1005.963257,243.682510 
	C1003.613220,241.910202 1000.543152,240.065414 999.084778,237.353821 
	C993.933777,227.776291 988.651917,218.167664 984.719910,208.064804 
	C980.858093,198.142242 982.140564,187.537064 986.329712,177.979675 
	C990.950012,167.438843 996.963318,157.508621 1002.661987,147.146286 
z"/>
<path fill="#073847" opacity="1.000000" stroke="none" 
	d="
M1000.655457,773.073730 
	C1000.567383,777.604248 1000.736084,782.433472 999.702515,786.989929 
	C997.047852,798.692810 999.121521,810.182861 1000.414001,821.738892 
	C1000.616211,823.546997 1001.065735,825.372620 1000.956116,827.162842 
	C1000.402832,836.200256 1001.381042,845.053711 1004.152100,853.653198 
	C1005.365662,857.419495 1004.548462,859.803223 1000.298950,860.979858 
	C986.094360,843.155640 978.600952,823.457581 985.243896,800.882446 
	C988.203308,790.825317 992.774170,781.059998 1000.655457,773.073730 
z"/>
<path fill="#732FC2" opacity="1.000000" stroke="none" 
	d="
M991.505737,493.310852 
	C994.537292,493.601959 997.503662,494.271576 1000.897156,494.910431 
	C1004.605591,505.463165 1007.886902,516.046692 1011.112183,526.449463 
	C1006.143066,529.848633 1003.871887,528.410156 1002.263367,523.653259 
	C998.862366,513.595459 995.071533,503.669434 991.505737,493.310852 
z"/>
<path fill="#E5E0FB" opacity="1.000000" stroke="none" 
	d="
M442.741882,479.999847 
	C442.741089,470.231628 442.741089,460.963409 442.741089,451.274384 
	C447.753815,451.274384 452.213226,451.192841 456.668427,451.294922 
	C462.345947,451.425018 463.225372,452.353607 463.240417,458.155914 
	C463.321075,489.276886 463.374664,520.397949 463.432404,551.518982 
	C463.444397,557.973328 463.434204,564.427734 463.434204,571.179749 
	C456.423187,571.179749 449.858856,571.179749 442.742676,571.179749 
	C442.742676,540.937683 442.742676,510.718781 442.741882,479.999847 
z"/>
<path fill="#DCDAF2" opacity="1.000000" stroke="none" 
	d="
M830.510132,499.000244 
	C830.507202,523.255127 830.507202,547.010010 830.507202,571.016235 
	C823.567688,571.016235 817.308044,571.016235 810.661987,571.016235 
	C810.661987,531.304382 810.661987,491.639404 810.661987,451.325012 
	C815.702026,451.325012 820.822937,450.938232 825.853882,451.444458 
	C830.062866,451.867950 830.568237,455.509613 830.561890,459.052521 
	C830.538391,472.201752 830.528198,485.351013 830.510132,499.000244 
z"/>
<path fill="#D9DAF2" opacity="1.000000" stroke="none" 
	d="
M555.226685,480.000122 
	C555.226929,510.901367 555.226929,541.302612 555.226929,572.173828 
	C548.431580,572.173828 542.612305,572.525574 536.895752,571.915527 
	C535.542114,571.771057 533.609436,568.438171 533.523987,566.502075 
	C533.134949,557.697449 533.296692,548.867798 533.285767,540.047180 
	C533.249817,511.091309 533.223999,482.135468 533.210510,453.179596 
	C533.210327,452.887238 533.429382,452.594727 533.652344,452.035767 
	C540.616638,452.035767 547.674194,452.035767 555.226440,452.035767 
	C555.226440,461.295929 555.226440,470.398010 555.226685,480.000122 
z"/>
<path fill="#E0DEF4" opacity="1.000000" stroke="none" 
	d="
M962.296509,470.641235 
	C963.659058,474.304413 965.634338,477.680420 965.683105,481.084045 
	C965.968750,501.027802 965.825806,520.978088 965.754089,540.925903 
	C965.747620,542.723877 965.468323,544.604797 964.886963,546.300232 
	C963.481689,550.399353 959.853516,552.972656 956.162598,552.277893 
	C953.198853,551.719971 950.516296,548.460205 948.257446,545.912964 
	C947.241272,544.767090 947.318054,542.435791 947.314392,540.641541 
	C947.272705,520.028809 947.309998,499.415924 947.330627,478.803101 
	C947.331482,477.972443 947.280457,477.126495 947.412598,476.313538 
	C948.731323,468.199524 955.366211,465.507446 962.296509,470.641235 
z"/>
<path fill="#E0DEF4" opacity="1.000000" stroke="none" 
	d="
M908.260376,540.551758 
	C908.283020,541.670105 908.177124,542.325012 908.156189,542.982605 
	C907.901794,550.991028 904.114807,553.948730 896.468689,551.527588 
	C895.171082,551.116760 893.881775,548.376953 893.839966,546.682190 
	C893.595154,536.774231 893.722717,526.856995 893.734558,516.180115 
	C893.661682,514.589661 893.578796,513.761963 893.495911,512.934326 
	C893.534363,510.900726 893.572754,508.867126 893.579529,506.395813 
	C893.758728,495.477142 893.903931,484.994263 894.222168,474.516602 
	C894.312012,471.557190 892.585327,467.455475 898.177429,467.227997 
	C903.197937,467.023743 907.214966,469.949188 907.759705,474.651764 
	C907.912170,475.968323 907.830078,477.313263 907.837402,478.645264 
	C907.950439,499.126709 908.060486,519.608154 908.260376,540.551758 
z"/>
<path fill="#8225E5" opacity="1.000000" stroke="none" 
	d="
M271.732361,514.509766 
	C269.173279,515.307983 266.689209,515.644836 263.822327,515.971924 
	C262.210846,515.218384 261.027344,513.944580 259.744598,513.835144 
	C256.526520,513.560730 253.263550,513.813171 249.572861,513.960205 
	C244.064896,512.524780 244.849777,507.423218 243.343765,503.912750 
	C241.691116,500.060486 244.425400,497.155060 248.069504,495.410095 
	C249.262802,497.473785 249.866653,500.510773 250.861633,500.644836 
	C254.982971,501.200195 259.222565,500.877869 263.886200,500.877869 
	C263.886200,491.445618 263.886200,482.718292 263.886200,473.991028 
	C266.119781,473.319183 268.353333,472.647339 271.003113,471.955750 
	C271.548706,485.973541 271.678009,500.011017 271.732361,514.509766 
z"/>
<path fill="#9332EE" opacity="1.000000" stroke="none" 
	d="
M303.691467,517.410522 
	C303.859711,517.540039 303.425201,517.613525 303.425201,517.613525 
	C303.425201,517.613525 303.011017,517.462769 302.848755,517.310669 
	C302.978394,517.110840 303.257294,517.151672 303.691467,517.410522 
z"/>
<path fill="#8A2CE8" opacity="1.000000" stroke="none" 
	d="
M893.069946,512.947449 
	C893.578796,513.761963 893.661682,514.589661 893.646973,515.721802 
	C892.166687,515.888855 890.784058,515.751526 889.401367,515.614136 
	C889.297974,515.177612 889.194580,514.741150 889.091187,514.304688 
	C890.275452,513.856628 891.459778,513.408630 893.069946,512.947449 
z"/>
<path fill="#D9DAF2" opacity="1.000000" stroke="none" 
	d="
M263.793701,473.621704 
	C263.886200,482.718292 263.886200,491.445618 263.886200,500.877869 
	C259.222565,500.877869 254.982971,501.200195 250.861633,500.644836 
	C249.866653,500.510773 249.262802,497.473785 248.440750,495.357178 
	C248.660141,487.172150 248.809433,479.395752 249.233582,471.634369 
	C249.385071,468.862366 249.862030,466.005463 250.791458,463.401855 
	C252.340561,459.062408 256.516571,458.186554 259.106964,461.995819 
	C261.335938,465.273651 262.221588,469.464996 263.793701,473.621704 
z"/>
</svg>